<svg height="512pt" viewBox="0 0 512 512.08757" width="512pt" xmlns="http://www.w3.org/2000/svg"><path d="m186.648438 239.097656c-4.671876.621094-7.953126 4.914063-7.332032 9.585938l17.070313 128c.5625 4.234375 4.171875 7.398437 8.445312 7.402344.382813 0 .765625-.023438 1.144531-.074219 4.667969-.621094 7.949219-4.914063 7.328126-9.585938l-17.066407-128c-.644531-4.660156-4.925781-7.933593-9.589843-7.328125zm0 0"/><path d="m152.585938 222.019531c-4.675782.585938-7.992188 4.851563-7.410157 9.527344l17.066407 136.53125c.535156 4.265625 4.15625 7.46875 8.453124 7.476563.359376 0 .71875-.023438 1.074219-.066407 4.675781-.585937 7.992188-4.851562 7.40625-9.527343l-17.066406-136.53125c-.585937-4.675782-4.847656-7.988282-9.523437-7.410157zm0 0"/><path d="m384.652344 4.15625c-54.738282-12.621094-112.113282 3.9375-151.707032 43.785156-3.332031 3.332032-3.332031 8.734375 0 12.066406l51.011719 51.011719h-163.851562c-4.722657.003907-9.238281 1.960938-12.464844 5.414063s-4.875 8.089844-4.558594 12.804687l2.644531 39.140625 29.46875 320.453125c1.15625 13.199219 12.234376 23.308594 25.484376 23.253907h233.519531c13.164062.035156 24.195312-9.941407 25.472656-23.042969l22.089844-220.214844 10.359375 10.359375c3.332031 3.332031 8.734375 3.332031 12.066406 0 63.828125-63.867188 63.828125-167.378906 0-231.246094-21.800781-21.871094-49.394531-37.0625-79.535156-43.785156zm-.824219 182.597656c-.054687-.742187-.199219-1.476562-.441406-2.179687.136719-.136719.300781-.230469.433593-.367188 2.925782-2.992187 5.355469-6.433593 7.195313-10.191406l69.328125 3.113281c-2.082031 22.429688-10.726562 43.75-24.851562 61.292969zm-43.839844-46.378906c8.882813-8.507812 22.886719-8.507812 31.769531 0 4.222657 4.207031 6.59375 9.925781 6.59375 15.886719 0 5.960937-2.371093 11.675781-6.59375 15.886719-.4375.433593-.917968.765624-1.378906 1.15625l-31.546875-31.550782c.382813-.460937.71875-.941406 1.15625-1.378906zm55.34375 16.75c.007813-.292969.085938-.570312.085938-.867188 0-7.527343-2.171875-14.894531-6.253907-21.222656l43.648438-43.648437c16.582031 19.191406 26.328125 43.34375 27.707031 68.667969zm-18.238281-34.15625c-6.324219-4.082031-13.695312-6.253906-21.222656-6.257812-.292969 0-.570313.078124-.863282.085937l-2.929687-65.183594c25.324219 1.378907 49.472656 11.125 68.664063 27.707031zm-42.09375-71.179688 3.117188 69.324219c-3.757813 1.839844-7.195313 4.269531-10.191407 7.191407-.433593.433593-.75.9375-1.164062 1.386718l-53.050781-53.050781c17.546874-14.125 38.863281-22.769531 61.289062-24.851563zm-33.976562 76.296876 51.199218 51.203124h-228.359375l-1.128906-12.269531-2.628906-38.933593zm93.175781 366.933593h-233.519531c-4.417969.019531-8.113282-3.351562-8.5-7.753906l-6.335938-68.90625c33.988281 36.824219 81.4375 58.324219 131.53125 59.59375 47.800781 0 94.851562-21.957031 132.375-60.949219l-7.058594 70.335938c-.425781 4.371094-4.105468 7.695312-8.492187 7.679687zm18.5-107.425781c-36.382813 46.585938-85.574219 73.292969-135.324219 73.292969-49.410156 0-98.183594-25.988281-134.179688-71.320313l-17.765624-193.210937h243.859374l56.882813 56.882812zm45.285156-126.683594-10.398437-10.398437c43.441406-52.496094 39.820312-129.421875-8.363282-177.605469-48.183594-48.179688-125.109375-51.800781-177.605468-8.359375l-10.398438-10.402344c57.957031-51.507812 146.023438-48.917969 200.851562 5.914063 54.828126 54.828125 57.421876 142.890625 5.910157 200.851562zm0 0"/><path d="m108.476562 509.589844c2.441407-2.441406 3.171876-6.113282 1.851563-9.300782s-4.433594-5.269531-7.886719-5.269531c-3.449218 0-6.5625 2.082031-7.882812 5.269531-1.320313 3.1875-.589844 6.859376 1.851562 9.300782 3.332032 3.332031 8.734375 3.332031 12.066406 0zm0 0"/><path d="m70.808594 471.921875c-2.441406 2.4375-3.171875 6.109375-1.847656 9.296875 1.320312 3.191406 4.429687 5.269531 7.882812 5.269531 3.449219 0 6.5625-2.078125 7.882812-5.269531 1.320313-3.1875.589844-6.859375-1.847656-9.296875-3.335937-3.335937-8.738281-3.335937-12.070312 0zm0 0"/><path d="m45.210938 488.988281c-2.441407 2.4375-3.171876 6.109375-1.851563 9.296875 1.320313 3.191406 4.433594 5.269532 7.882813 5.269532 3.453124 0 6.5625-2.078126 7.886718-5.269532 1.320313-3.1875.589844-6.859375-1.851562-9.296875-3.332032-3.332031-8.734375-3.332031-12.066406 0zm0 0"/><path d="m74.34375 441.320312c2.441406-2.441406 3.171875-6.109374 1.851562-9.296874-1.324218-3.191407-4.433593-5.269532-7.886718-5.269532-3.449219 0-6.5625 2.078125-7.882813 5.269532-1.320312 3.1875-.589843 6.855468 1.851563 9.296874 3.332031 3.332032 8.734375 3.332032 12.066406 0zm0 0"/><path d="m4.433594 511.011719c4.121094 2.289062 9.3125.804687 11.601562-3.316407 2.289063-4.117187.804688-9.3125-3.3125-11.601562-4.121094-2.289062-9.316406-.804688-11.605468 3.3125-1.0976568 1.980469-1.367188 4.3125-.746094 6.488281.621094 2.179688 2.082031 4.019531 4.0625 5.117188zm0 0"/><path d="m48.742188 466.921875c2.441406-2.441406 3.171874-6.113281 1.851562-9.300781s-4.433594-5.265625-7.882812-5.265625c-3.453126 0-6.5625 2.078125-7.886719 5.265625-1.320313 3.1875-.589844 6.859375 1.851562 9.300781 3.332031 3.332031 8.734375 3.332031 12.066407 0zm0 0"/><path d="m23.144531 483.988281c2.441407-2.441406 3.171875-6.109375 1.847657-9.300781-1.320313-3.1875-4.429688-5.265625-7.882813-5.265625-3.449219 0-6.5625 2.078125-7.882813 5.265625-1.320312 3.191406-.589843 6.859375 1.847657 9.300781 3.335937 3.332031 8.738281 3.332031 12.070312 0zm0 0"/><path d="m108.476562 466.921875c2.441407-2.441406 3.171876-6.113281 1.851563-9.300781s-4.433594-5.265625-7.886719-5.265625c-3.449218 0-6.5625 2.078125-7.882812 5.265625-1.320313 3.1875-.589844 6.859375 1.851562 9.300781 3.332032 3.332031 8.734375 3.332031 12.066406 0zm0 0"/></svg>